# xmcd CD database file
#
# Track frame offsets:
#	150
#	20230
#	42150
#	62182
#	81252
#	104172
#	126907
#	143850
#	165825
#	183290
#	203400
#
# Disc length: 2783 seconds
#
# Revision: 2
# Processed by: cddbd v1.5.2PL0 Copyright (c) Steve Scherf et al.
# Submitted via: CDex 1.70beta3
#
DISCID=970add0b
DTITLE=remote - remote ancestors
DYEAR=1990
DGENRE=Pop
TTITLE0=Never Be!
TTITLE1=Call me back
TTITLE2=Wendy
TTITLE3=Misery Gigolo
TTITLE4=あの頃teenage
TTITLE5=No!
TTITLE6=Because,I’m so hard
TTITLE7=Love Letter
TTITLE8=Dream Again
TTITLE9=All Night?All Right!
TTITLE10=Believe2
EXTD=YEAR: 1990
EXTT0=
EXTT1=
EXTT2=
EXTT3=
EXTT4=
EXTT5=
EXTT6=
EXTT7=
EXTT8=
EXTT9=
EXTT10=
PLAYORDER=
